<svg width="170" height="74" viewBox="0 0 170 74" fill="none" xmlns="http://www.w3.org/2000/svg">
<path d="M0.125 49.082C0.125 48.9518 0.125 48.7891 0.125 48.5938C0.190104 48.3333 0.255208 48.2031 0.320312 48.2031L20.9258 20.0781H23.1719C23.1719 21.6406 22.8138 23.3008 22.0977 25.0586C21.4466 26.8164 20.5677 28.5742 19.4609 30.332C18.4193 32.0247 17.2148 33.6849 15.8477 35.3125C14.4805 36.9401 13.1458 38.4701 11.8438 39.9023C10.6068 41.2695 9.4349 42.5065 8.32812 43.6133C7.28646 44.7201 6.47266 45.599 5.88672 46.25V49.9609C6.47266 50.1562 7.28646 50.5143 8.32812 51.0352C9.4349 51.4909 10.6719 52.0443 12.0391 52.6953C13.4062 53.2812 14.806 53.8997 16.2383 54.5508C17.7357 55.2018 19.168 55.8529 20.5352 56.5039C21.9023 57.1549 23.1068 57.7409 24.1484 58.2617C25.2552 58.7826 26.0365 59.1406 26.4922 59.3359C26.6875 59.4661 26.9805 59.694 27.3711 60.0195C27.7617 60.3451 28.1523 60.7031 28.543 61.0938C28.9336 61.4844 29.2917 61.875 29.6172 62.2656C30.0078 62.6562 30.2357 62.9492 30.3008 63.1445C29.9102 63.9258 29.5195 64.4466 29.1289 64.707C28.7383 64.9674 28.2174 65.0977 27.5664 65.0977C27.0456 65.0977 26.0039 64.7396 24.4414 64.0234C22.8789 63.3073 21.0885 62.4284 19.0703 61.3867C17.0521 60.2799 14.9362 59.1081 12.7227 57.8711C10.5091 56.569 8.45833 55.332 6.57031 54.1602C4.7474 52.9232 3.21745 51.849 1.98047 50.9375C0.74349 50.026 0.125 49.4076 0.125 49.082ZM79.0312 58.5547C76.4922 59.8568 74.2461 60.8984 72.293 61.6797C70.3398 62.4609 68.4518 63.0794 66.6289 63.5352C64.806 63.9258 62.9505 64.1862 61.0625 64.3164C59.2396 64.4466 57.1237 64.5117 54.7148 64.5117C51.5247 64.5117 48.6602 64.1536 46.1211 63.4375C43.582 62.6562 41.401 61.5169 39.5781 60.0195C37.8203 58.457 36.4531 56.5039 35.4766 54.1602C34.5 51.7513 34.0117 48.8542 34.0117 45.4688C34.0117 42.4089 34.3047 39.1862 34.8906 35.8008C35.5417 32.4154 36.4531 29.0625 37.625 25.7422C38.862 22.3568 40.3594 19.1341 42.1172 16.0742C43.9401 12.9492 46.056 10.2148 48.4648 7.87109C50.8737 5.52734 53.5755 3.67188 56.5703 2.30469C59.5651 0.872396 62.8854 0.15625 66.5312 0.15625C67.8984 0.15625 69.526 0.31901 71.4141 0.644531C73.3021 0.904948 75.0924 1.39323 76.7852 2.10938C78.543 2.76042 80.0078 3.73698 81.1797 5.03906C82.3516 6.27604 82.9375 7.87109 82.9375 9.82422C82.9375 10.5404 82.5794 10.8984 81.8633 10.8984C81.2122 10.8333 80.3659 10.5729 79.3242 10.1172C78.3477 9.66146 77.2083 9.07552 75.9062 8.35938C74.6693 7.64323 73.4648 6.95964 72.293 6.30859C71.1211 5.65755 70.0469 5.10417 69.0703 4.64844C68.0938 4.19271 67.3451 4.02995 66.8242 4.16016C63.6992 4.16016 60.8672 4.77865 58.3281 6.01562C55.7891 7.1875 53.4779 8.78255 51.3945 10.8008C49.3763 12.819 47.5859 15.1628 46.0234 17.832C44.526 20.4362 43.2565 23.1706 42.2148 26.0352C41.2383 28.8997 40.4896 31.7643 39.9688 34.6289C39.513 37.4284 39.2852 40.0977 39.2852 42.6367C38.8294 45.6966 38.9922 48.3659 39.7734 50.6445C40.6198 52.8581 41.8568 54.7135 43.4844 56.2109C45.112 57.6432 47.0651 58.7174 49.3438 59.4336C51.6224 60.1497 53.9661 60.5729 56.375 60.7031C58.849 60.7682 61.2904 60.5404 63.6992 60.0195C66.1081 59.4336 68.2891 58.5872 70.2422 57.4805C72.2604 56.3737 73.888 55.0065 75.125 53.3789C76.4271 51.7513 77.1758 49.9284 77.3711 47.9102C77.3711 45.8268 76.9479 44.069 76.1016 42.6367C75.3203 41.2044 74.2461 40 72.8789 39.0234C71.5768 38.0469 70.0469 37.2656 68.2891 36.6797C66.5964 36.0938 64.8385 35.638 63.0156 35.3125C61.2578 34.987 59.4674 34.7591 57.6445 34.6289C55.8867 34.4987 54.2591 34.3359 52.7617 34.1406V32.3828C52.7617 32.2526 53.6081 32.0247 55.3008 31.6992C57.0586 31.3737 59.1094 31.0156 61.4531 30.625C63.862 30.2344 66.3359 29.8438 68.875 29.4531C71.4141 29.0625 73.5625 28.7695 75.3203 28.5742C75.3203 28.5742 75.4831 28.5742 75.8086 28.5742C76.1341 28.5091 76.4922 28.4766 76.8828 28.4766C77.2734 28.4766 77.6641 28.4766 78.0547 28.4766C78.4453 28.4766 78.7708 28.4766 79.0312 28.4766C79.1615 28.4766 79.3893 28.4766 79.7148 28.4766C80.1055 28.4766 80.4961 28.4766 80.8867 28.4766C81.2773 28.4766 81.6354 28.5091 81.9609 28.5742C82.3516 28.5742 82.612 28.5742 82.7422 28.5742C82.8073 29.4857 82.8724 30.9505 82.9375 32.9688C83.0677 34.9219 83.1979 37.1354 83.3281 39.6094C83.4583 42.0182 83.5885 44.5898 83.7188 47.3242C83.849 50.0586 83.9792 52.6628 84.1094 55.1367C84.2396 57.5456 84.3372 59.7266 84.4023 61.6797C84.5326 63.6328 84.6302 65.0977 84.6953 66.0742C84.6953 66.3346 84.6953 66.8229 84.6953 67.5391C84.6953 68.2552 84.6953 69.0039 84.6953 69.7852C84.7604 70.6315 84.793 71.3802 84.793 72.0312C84.793 72.7474 84.793 73.2682 84.793 73.5938H82.7422L79.0312 58.5547ZM79.0312 37.9492V31.9922C78.0547 31.9922 77.0456 32.2526 76.0039 32.7734C74.9622 33.2292 74.0833 33.6849 73.3672 34.1406L79.0312 37.9492ZM88.3086 26.9141C89.0898 26.5885 89.7734 26.5234 90.3594 26.7188C90.9453 26.9141 91.4336 27.2721 91.8242 27.793C92.2148 28.3138 92.5078 28.9323 92.7031 29.6484C92.8984 30.2995 93.0612 30.9505 93.1914 31.6016C94.0378 30.1693 95.2422 29.0299 96.8047 28.1836C98.4323 27.2721 100.158 26.6862 101.98 26.4258C103.803 26.1003 105.626 26.0352 107.449 26.2305C109.272 26.3607 110.802 26.7513 112.039 27.4023C113.341 27.9883 114.253 28.8346 114.773 29.9414C115.294 30.9831 115.164 32.2201 114.383 33.6523C112.69 32.6758 110.9 31.8945 109.012 31.3086C107.189 30.7227 105.398 30.5273 103.641 30.7227C101.883 30.918 100.255 31.6016 98.7578 32.7734C97.2604 33.8802 96.0234 35.6706 95.0469 38.1445C94.0703 40.6185 93.4518 43.9062 93.1914 48.0078C92.9961 52.0443 93.2891 57.0898 94.0703 63.1445H90.3594C90.3594 63.1445 90.2943 62.6237 90.1641 61.582C90.099 60.4753 90.0013 59.043 89.8711 57.2852C89.806 55.5273 89.6758 53.5742 89.4805 51.4258C89.3503 49.2773 89.2201 47.0964 89.0898 44.8828C88.9596 42.6693 88.8294 40.5534 88.6992 38.5352C88.6341 36.4518 88.5365 34.6615 88.4062 33.1641C88.4062 32.9688 88.3737 32.5781 88.3086 31.9922C88.3086 31.4062 88.3086 30.7878 88.3086 30.1367C88.3086 29.4206 88.3086 28.7695 88.3086 28.1836C88.3086 27.5977 88.3086 27.1745 88.3086 26.9141ZM132.352 12.4609C132.482 12.0703 132.645 11.6471 132.84 11.1914C133.035 10.6706 133.263 10.3451 133.523 10.2148C133.849 10.0195 134.207 10.0846 134.598 10.4102C134.988 10.6706 135.477 11.3542 136.062 12.4609L120.242 66.0742L117.312 63.1445L132.352 12.4609ZM163.309 38.8281L140.848 20.0781V14.4141C141.368 14.8698 142.15 15.5534 143.191 16.4648C144.298 17.3112 145.535 18.2878 146.902 19.3945C148.27 20.5013 149.669 21.6732 151.102 22.9102C152.599 24.1471 154.031 25.319 155.398 26.4258C156.766 27.4674 157.97 28.444 159.012 29.3555C160.118 30.2018 160.965 30.8203 161.551 31.2109C162.137 31.6667 162.853 32.0898 163.699 32.4805C164.546 32.806 165.359 33.2292 166.141 33.75C166.987 34.2057 167.703 34.7591 168.289 35.4102C168.875 35.9961 169.168 36.7773 169.168 37.7539C169.168 37.8841 169.135 38.0794 169.07 38.3398C169.07 38.5352 169.038 38.6979 168.973 38.8281C168.517 39.4141 167.866 40.3581 167.02 41.6602C166.173 42.8971 165.197 44.3294 164.09 45.957C162.983 47.5195 161.811 49.2122 160.574 51.0352C159.337 52.793 158.165 54.4857 157.059 56.1133C155.952 57.6758 154.943 59.1081 154.031 60.4102C153.185 61.6471 152.566 62.5586 152.176 63.1445C151.59 63.8607 151.036 64.4466 150.516 64.9023C149.995 65.293 149.279 65.4883 148.367 65.4883V61.2891L163.309 38.8281Z" fill="black"/>
</svg>
